<svg width="354" height="343" viewBox="0 0 354 343" fill="none" xmlns="http://www.w3.org/2000/svg">
<g clip-path="url(#clip0_0_330)">
<path d="M196.374 322.101C197.716 322.101 198.943 321.348 199.543 320.153L245.022 229.542C246.199 227.197 244.485 224.437 241.854 224.437H186.745C185.402 224.437 184.176 225.19 183.575 226.385L138.097 316.996C136.92 319.341 138.634 322.101 141.265 322.101M196.374 322.101H141.265M196.374 322.101C199.006 322.101 200.719 319.341 199.543 316.996L171.569 261.266C170.97 260.071 169.743 259.318 168.401 259.318H113.287C110.656 259.318 108.942 262.077 110.119 264.422H110.124L138.097 320.153C138.696 321.348 139.922 322.101 141.265 322.101M155.222 161.653C153.88 161.653 152.654 162.407 152.054 163.602L106.575 254.212C105.398 256.558 107.112 259.318 109.744 259.318H164.853C166.195 259.318 167.421 258.564 168.021 257.368L213.499 166.758C214.677 164.412 212.962 161.653 210.331 161.653M155.222 161.653H210.331M155.222 161.653C152.591 161.653 150.878 164.412 152.055 166.758L180.027 222.489C180.627 223.683 181.853 224.437 183.196 224.437H238.309C240.94 224.437 242.654 221.677 241.477 219.331H241.474L213.5 163.602C212.9 162.407 211.674 161.653 210.331 161.653M385.504 447.677C386.846 447.677 388.073 446.923 388.672 445.729L434.151 355.118C435.328 352.773 433.614 350.012 430.982 350.012H375.873C374.531 350.012 373.305 350.766 372.705 351.962L327.227 442.573C326.05 444.918 327.763 447.677 330.395 447.677M385.504 447.677H330.395M385.504 447.677C388.135 447.677 389.849 444.918 388.672 442.573L360.699 386.842C360.098 385.647 358.872 384.893 357.531 384.893H302.417C299.786 384.893 298.072 387.654 299.249 389.999H299.253L327.225 445.729C327.826 446.923 329.052 447.677 330.395 447.677M280.504 545.351C281.846 545.351 283.072 544.598 283.673 543.403L329.151 452.792C330.328 450.447 328.614 447.686 325.983 447.686H270.874C269.532 447.686 268.306 448.44 267.705 449.635L222.227 540.245C221.049 542.591 222.764 545.351 225.395 545.351M280.504 545.351H225.395M280.504 545.351C283.136 545.351 284.849 542.591 283.671 540.245L255.699 484.516C255.099 483.321 253.873 482.567 252.53 482.567H197.417C194.786 482.567 193.072 485.328 194.249 487.673H194.253L222.226 543.403C222.826 544.598 224.052 545.351 225.395 545.351M301.34 224.437C302.683 224.437 303.909 223.683 304.508 222.488L349.988 131.877C351.165 129.531 349.451 126.772 346.82 126.772H291.711C290.367 126.772 289.142 127.526 288.542 128.721L243.063 219.331C241.886 221.677 243.6 224.437 246.231 224.437M301.34 224.437H246.231M301.34 224.437C303.971 224.437 305.685 221.677 304.508 219.331L276.535 163.602C275.936 162.407 274.709 161.653 273.367 161.653H218.253C215.622 161.653 213.908 164.412 215.085 166.758H215.09L243.063 222.488C243.662 223.683 244.889 224.437 246.231 224.437M260.187 63.9838C258.845 63.9838 257.618 64.7374 257.019 65.9323L211.539 156.543C210.362 158.888 212.076 161.649 214.708 161.649H269.816C271.159 161.649 272.385 160.895 272.986 159.7L318.464 69.0892C319.641 66.7438 317.927 63.9838 315.296 63.9838M260.187 63.9838H315.296M260.187 63.9838C257.555 63.9838 255.842 66.7438 257.019 69.0892L284.992 124.819C285.591 126.014 286.818 126.768 288.16 126.768H343.274C345.905 126.768 347.619 124.007 346.442 121.662H346.437L318.464 65.9323C317.865 64.7374 316.639 63.9838 315.296 63.9838M395.867 287.225C397.21 287.225 398.436 286.472 399.035 285.276L444.514 194.665C445.691 192.32 443.977 189.561 441.346 189.561H386.237C384.894 189.561 383.668 190.314 383.069 191.509L337.589 282.12C336.413 284.465 338.126 287.225 340.757 287.225M395.867 287.225H340.757M395.867 287.225C398.498 287.225 400.212 284.465 399.035 282.12L371.062 226.39C370.462 225.195 369.237 224.442 367.893 224.442H312.779C310.148 224.442 308.435 227.201 309.611 229.546H309.616L337.589 285.276C338.189 286.472 339.416 287.225 340.757 287.225M144.62 322.11C143.277 322.11 142.051 322.863 141.452 324.058L95.9727 414.669C94.7957 417.014 96.5097 419.774 99.141 419.774H154.25C155.593 419.774 156.819 419.021 157.418 417.826L202.897 327.215C204.074 324.87 202.36 322.11 199.729 322.11M144.62 322.11H199.729M144.62 322.11C141.989 322.11 140.275 324.87 141.452 327.215L169.425 382.945C170.024 384.14 171.25 384.893 172.593 384.893H227.707C230.338 384.893 232.052 382.133 230.875 379.788H230.87L202.897 324.058C202.298 322.863 201.071 322.11 199.729 322.11M50.2258 259.321C48.8834 259.321 47.6572 260.075 47.0577 261.271L1.57862 351.882H1.57415C0.397238 354.227 2.11114 356.986 4.74243 356.986H59.856C61.1984 356.986 62.4246 356.233 63.0243 355.038L108.503 264.427C109.68 262.082 107.966 259.321 105.335 259.321H50.2258ZM50.2258 259.321H105.33C106.673 259.321 107.899 260.075 108.499 261.271L136.472 317.001H136.48C137.657 319.346 135.943 322.105 133.312 322.105H78.1988C76.8563 322.105 75.6302 321.352 75.0306 320.157L47.0577 264.427C45.8807 262.082 47.5946 259.321 50.2258 259.321ZM117.146 93.7549L162.625 3.14415C163.224 1.94921 164.451 1.19568 165.793 1.19568H220.902C223.533 1.19568 225.247 3.95565 224.07 6.30096L178.592 96.9118C177.992 98.1067 176.766 98.8602 175.423 98.8602H120.315C117.683 98.8602 115.969 96.1003 117.146 93.7549ZM252.043 58.8741L224.067 3.14415C223.466 1.94921 222.24 1.19568 220.899 1.19568H165.789C163.158 1.19568 161.445 3.95565 162.621 6.30096L190.593 62.0309C191.194 63.2259 192.42 63.9794 193.763 63.9794H248.875C251.506 63.9794 253.22 61.2195 252.043 58.8741ZM150.624 166.754L105.144 257.365C104.544 258.56 103.318 259.313 101.976 259.313H46.8758C44.2446 259.313 42.5306 256.553 43.7076 254.208L89.1865 163.597C89.7862 162.402 91.0123 161.649 92.3547 161.649H147.464C150.095 161.649 151.809 164.409 150.632 166.754H150.624ZM15.73 201.635L43.7029 257.365C44.3026 258.56 45.5286 259.313 46.8712 259.313H101.98C104.611 259.313 106.325 256.553 105.148 254.208L77.1755 198.478C76.5759 197.283 75.3498 196.529 74.0073 196.529H18.8937C16.2625 196.529 14.5486 199.29 15.7254 201.635H15.73ZM12.1817 191.424L57.6607 100.809C58.2603 99.6136 59.4864 98.8602 60.8289 98.8602H115.938C118.569 98.8602 120.284 101.62 119.106 103.965L73.6273 194.577C73.0276 195.771 71.8015 196.525 70.459 196.525H15.3499C12.7187 196.525 11.0048 193.764 12.1817 191.419V191.424ZM147.08 156.543L119.106 100.813C118.507 99.6182 117.281 98.8647 115.938 98.8647H60.8292C58.1979 98.8647 56.484 101.625 57.6609 103.97L85.6338 159.7C86.2335 160.895 87.4596 161.649 88.8021 161.649H143.916C146.547 161.649 148.26 158.888 147.084 156.543H147.08ZM339.551 292.33L294.071 382.94C293.472 384.136 292.246 384.89 290.903 384.89H235.794C233.163 384.89 231.449 382.13 232.626 379.784L278.105 289.173C278.705 287.979 279.932 287.225 281.273 287.225H336.383C339.014 287.225 340.728 289.984 339.551 292.33ZM204.653 327.215L232.626 382.945C233.225 384.14 234.452 384.893 235.794 384.893H290.903C293.534 384.893 295.248 382.134 294.071 379.789L266.098 324.059C265.499 322.863 264.273 322.11 262.93 322.11H207.817C205.185 322.11 203.471 324.87 204.648 327.215H204.653ZM201.109 317.001L246.589 226.39C247.188 225.195 248.414 224.442 249.757 224.442H304.866C307.497 224.442 309.211 227.201 308.034 229.546L262.555 320.157C261.955 321.352 260.73 322.106 259.386 322.106H204.277C201.646 322.106 199.932 319.346 201.109 317.001ZM336.004 282.12L308.03 226.39C307.43 225.195 306.204 224.442 304.862 224.442H249.753C247.121 224.442 245.407 227.201 246.584 229.546L274.557 285.276C275.157 286.472 276.383 287.225 277.725 287.225H332.839C335.47 287.225 337.184 284.465 336.007 282.12H336.004ZM295.705 379.789L341.183 289.178C341.784 287.982 343.009 287.229 344.351 287.229H399.46C402.092 287.229 403.807 289.989 402.629 292.334L357.15 382.945C356.55 384.14 355.324 384.893 353.982 384.893H298.873C296.242 384.893 294.527 382.134 295.705 379.789ZM430.603 344.903L402.63 289.173C402.029 287.979 400.803 287.225 399.462 287.225H344.352C341.72 287.225 340.006 289.984 341.183 292.33L369.156 348.061C369.757 349.255 370.983 350.009 372.324 350.009H427.438C430.069 350.009 431.783 347.249 430.606 344.903H430.603ZM190.708 477.457L236.188 386.846C236.787 385.652 238.013 384.898 239.356 384.898H294.465C297.096 384.898 298.81 387.658 297.633 390.004L252.153 480.614C251.554 481.809 250.327 482.563 248.985 482.563H193.876C191.245 482.563 189.531 479.802 190.708 477.457ZM325.601 442.576L297.628 386.846C297.029 385.652 295.803 384.898 294.46 384.898H239.351C236.72 384.898 235.006 387.658 236.183 390.004L264.156 445.734C264.755 446.928 265.982 447.682 267.324 447.682H322.438C325.069 447.682 326.783 444.921 325.606 442.576H325.601ZM255.588 69.0846L210.109 159.696C209.51 160.89 208.283 161.644 206.941 161.644H151.831C149.2 161.644 147.487 158.884 148.663 156.538L194.142 65.9278C194.742 64.7328 195.968 63.9794 197.311 63.9794H252.419C255.051 63.9794 256.765 66.7392 255.588 69.0846ZM120.694 103.97L148.667 159.7C149.266 160.895 150.493 161.649 151.835 161.649H206.944C209.575 161.649 211.289 158.888 210.112 156.543L182.139 100.813C181.54 99.6182 180.314 98.8646 178.971 98.8646H123.858C121.226 98.8646 119.513 101.625 120.689 103.97H120.694ZM306.074 219.331L351.553 128.721C352.152 127.526 353.378 126.772 354.721 126.772H409.831C412.462 126.772 414.175 129.533 412.999 131.878L367.519 222.489C366.92 223.683 365.694 224.437 364.351 224.437H309.242C306.611 224.437 304.897 221.677 306.074 219.331ZM440.967 184.45L412.994 128.721C412.395 127.526 411.169 126.772 409.826 126.772H354.717C352.085 126.772 350.372 129.531 351.548 131.877L379.522 187.608C380.121 188.802 381.348 189.556 382.69 189.556H437.804C440.435 189.556 442.149 186.796 440.972 184.45H440.967ZM234.416 390.004L188.938 480.614C188.338 481.809 187.112 482.563 185.769 482.563H130.66C128.029 482.563 126.315 479.802 127.492 477.457L172.971 386.846C173.57 385.652 174.797 384.898 176.139 384.898H231.248C233.879 384.898 235.593 387.658 234.416 390.004ZM99.5228 424.885L127.495 480.614C128.096 481.809 129.321 482.563 130.664 482.563H185.774C188.405 482.563 190.118 479.802 188.942 477.457L160.969 421.727C160.369 420.533 159.142 419.779 157.8 419.779H102.687C100.055 419.779 98.3414 422.539 99.5183 424.885H99.5228ZM140.02 327.21L94.5416 417.821C93.942 419.016 92.7159 419.771 91.3734 419.771H36.2688C33.6375 419.771 31.9236 417.01 33.1005 414.665L78.5794 324.054C79.1791 322.86 80.4053 322.105 81.7477 322.105H136.857C139.488 322.105 141.202 324.865 140.025 327.21H140.02ZM5.1272 362.096L33.1001 417.826C33.6998 419.021 34.9259 419.774 36.2684 419.774H91.3775C94.0087 419.774 95.7226 417.014 94.5458 414.669L66.5729 358.939C65.9732 357.744 64.747 356.991 63.4046 356.991H8.29099C5.65972 356.991 3.94582 359.751 5.12272 362.096H5.1272Z" stroke="url(#paint0_radial_0_330)" stroke-opacity="0.2" stroke-width="1.79392" stroke-miterlimit="10"/>
</g>
<defs>
<radialGradient id="paint0_radial_0_330" cx="0" cy="0" r="1" gradientUnits="userSpaceOnUse" gradientTransform="translate(222.378 272.489) rotate(89.8602) scale(272.862 222.488)">
<stop stop-color="#8257E5"/>
<stop offset="1" stop-color="#8257E5" stop-opacity="0"/>
</radialGradient>
<clipPath id="clip0_0_330">
<rect width="354" height="342.041" fill="white"/>
</clipPath>
</defs>
</svg>
