<svg width="354" height="343" viewBox="0 0 354 343" fill="none" xmlns="http://www.w3.org/2000/svg">
<g clip-path="url(#clip0_0_328)">
<path d="M196.374 322.581C197.716 322.581 198.943 321.828 199.543 320.633L245.022 230.022C246.199 227.677 244.485 224.917 241.854 224.917H186.745C185.402 224.917 184.176 225.67 183.575 226.865L138.097 317.476C136.92 319.821 138.634 322.581 141.265 322.581M196.374 322.581H141.265M196.374 322.581C199.006 322.581 200.719 319.821 199.543 317.476L171.569 261.746C170.97 260.551 169.743 259.798 168.401 259.798H113.287C110.656 259.798 108.942 262.557 110.119 264.902H110.124L138.097 320.633C138.696 321.828 139.922 322.581 141.265 322.581M155.222 162.133C153.88 162.133 152.654 162.887 152.054 164.082L106.575 254.692C105.398 257.038 107.112 259.798 109.744 259.798H164.853C166.195 259.798 167.421 259.044 168.021 257.848L213.499 167.238C214.677 164.892 212.962 162.133 210.331 162.133M155.222 162.133H210.331M155.222 162.133C152.591 162.133 150.878 164.892 152.055 167.238L180.027 222.969C180.627 224.163 181.853 224.917 183.196 224.917H238.309C240.94 224.917 242.654 222.157 241.477 219.811H241.474L213.5 164.082C212.9 162.887 211.674 162.133 210.331 162.133M385.504 448.157C386.846 448.157 388.073 447.404 388.672 446.209L434.151 355.598C435.328 353.253 433.614 350.492 430.982 350.492H375.873C374.531 350.492 373.305 351.246 372.705 352.442L327.227 443.053C326.05 445.398 327.763 448.157 330.395 448.157M385.504 448.157H330.395M385.504 448.157C388.135 448.157 389.849 445.398 388.672 443.053L360.699 387.322C360.098 386.127 358.872 385.373 357.531 385.373H302.417C299.786 385.373 298.072 388.134 299.249 390.479H299.253L327.225 446.209C327.826 447.404 329.051 448.157 330.395 448.157M280.504 545.831C281.846 545.831 283.072 545.078 283.673 543.883L329.151 453.272C330.328 450.927 328.614 448.167 325.983 448.167H270.874C269.532 448.167 268.306 448.92 267.705 450.115L222.227 540.726C221.049 543.071 222.764 545.831 225.395 545.831M280.504 545.831H225.395M280.504 545.831C283.136 545.831 284.849 543.071 283.671 540.726L255.699 484.996C255.099 483.801 253.873 483.047 252.53 483.047H197.417C194.786 483.047 193.072 485.808 194.249 488.153H194.253L222.226 543.883C222.826 545.078 224.052 545.831 225.395 545.831M301.34 224.917C302.683 224.917 303.909 224.163 304.508 222.968L349.988 132.357C351.165 130.011 349.451 127.252 346.82 127.252H291.71C290.367 127.252 289.142 128.006 288.542 129.201L243.063 219.811C241.886 222.157 243.6 224.917 246.231 224.917M301.34 224.917H246.231M301.34 224.917C303.971 224.917 305.685 222.157 304.508 219.811L276.535 164.082C275.936 162.887 274.709 162.133 273.367 162.133H218.253C215.622 162.133 213.908 164.892 215.085 167.238H215.09L243.063 222.968C243.662 224.163 244.889 224.917 246.231 224.917M260.187 64.4638C258.845 64.4638 257.618 65.2174 257.018 66.4124L211.539 157.023C210.362 159.368 212.076 162.129 214.708 162.129H269.816C271.159 162.129 272.385 161.375 272.986 160.18L318.464 69.5692C319.641 67.2238 317.927 64.4638 315.296 64.4638M260.187 64.4638H315.296M260.187 64.4638C257.555 64.4638 255.842 67.2238 257.018 69.5692L284.992 125.299C285.591 126.494 286.818 127.248 288.16 127.248H343.274C345.905 127.248 347.619 124.487 346.442 122.142H346.437L318.464 66.4124C317.865 65.2174 316.639 64.4638 315.296 64.4638M395.867 287.705C397.21 287.705 398.436 286.952 399.035 285.756L444.514 195.145C445.691 192.8 443.977 190.041 441.346 190.041H386.237C384.894 190.041 383.668 190.794 383.069 191.989L337.589 282.6C336.413 284.945 338.126 287.705 340.757 287.705M395.867 287.705H340.757M395.867 287.705C398.498 287.705 400.211 284.945 399.035 282.6L371.061 226.87C370.462 225.675 369.236 224.922 367.893 224.922H312.779C310.148 224.922 308.435 227.681 309.611 230.026H309.616L337.589 285.756C338.189 286.952 339.416 287.705 340.757 287.705M144.62 322.59C143.277 322.59 142.051 323.343 141.452 324.538L95.9727 415.149C94.7957 417.494 96.5096 420.254 99.141 420.254H154.25C155.593 420.254 156.819 419.501 157.418 418.306L202.897 327.695C204.074 325.35 202.36 322.59 199.729 322.59M144.62 322.59H199.729M144.62 322.59C141.989 322.59 140.275 325.35 141.452 327.695L169.425 383.425C170.024 384.62 171.25 385.373 172.593 385.373H227.707C230.338 385.373 232.052 382.613 230.875 380.268H230.87L202.897 324.538C202.298 323.343 201.071 322.59 199.729 322.59M50.2258 259.801C48.8834 259.801 47.6572 260.555 47.0576 261.751L1.57861 352.362H1.57413C0.397223 354.707 2.11113 357.466 4.74241 357.466H59.8559C61.1984 357.466 62.4246 356.713 63.0242 355.518L108.503 264.907C109.68 262.562 107.966 259.801 105.335 259.801H50.2258ZM50.2258 259.801H105.33C106.673 259.801 107.899 260.555 108.499 261.751L136.472 317.481H136.48C137.657 319.826 135.943 322.585 133.312 322.585H78.1988C76.8563 322.585 75.6302 321.832 75.0306 320.637L47.0576 264.907C45.8807 262.562 47.5946 259.801 50.2258 259.801ZM117.146 94.235L162.625 3.62419C163.224 2.42925 164.451 1.67572 165.793 1.67572H220.902C223.533 1.67572 225.247 4.43569 224.07 6.781L178.592 97.3918C177.992 98.5868 176.766 99.3402 175.423 99.3402H120.315C117.683 99.3402 115.969 96.5804 117.146 94.235ZM252.043 59.3541L224.067 3.62419C223.466 2.42925 222.24 1.67572 220.899 1.67572H165.789C163.158 1.67572 161.444 4.43569 162.621 6.781L190.593 62.511C191.194 63.706 192.419 64.4594 193.763 64.4594H248.875C251.506 64.4594 253.22 61.6995 252.043 59.3541ZM150.624 167.234L105.144 257.845C104.544 259.04 103.318 259.793 101.976 259.793H46.8757C44.2445 259.793 42.5306 257.033 43.7076 254.688L89.1865 164.077C89.7862 162.882 91.0122 162.129 92.3547 162.129H147.464C150.095 162.129 151.809 164.889 150.632 167.234H150.624ZM15.73 202.115L43.7029 257.845C44.3025 259.04 45.5286 259.793 46.8712 259.793H101.98C104.611 259.793 106.325 257.033 105.148 254.688L77.1755 198.958C76.5759 197.763 75.3498 197.01 74.0073 197.01H18.8937C16.2625 197.01 14.5486 199.77 15.7254 202.115H15.73ZM12.1817 191.904L57.6607 101.289C58.2603 100.094 59.4864 99.3402 60.8288 99.3402H115.938C118.569 99.3402 120.284 102.1 119.106 104.445L73.6273 195.057C73.0276 196.251 71.8015 197.005 70.459 197.005H15.3499C12.7187 197.005 11.0047 194.245 12.1817 191.899V191.904ZM147.08 157.023L119.106 101.293C118.507 100.098 117.281 99.3448 115.938 99.3448H60.8292C58.1979 99.3448 56.484 102.105 57.6609 104.45L85.6338 160.18C86.2335 161.375 87.4596 162.129 88.8021 162.129H143.915C146.547 162.129 148.26 159.368 147.084 157.023H147.08ZM339.551 292.81L294.071 383.42C293.472 384.616 292.246 385.37 290.903 385.37H235.794C233.163 385.37 231.449 382.61 232.626 380.264L278.105 289.653C278.705 288.459 279.932 287.705 281.273 287.705H336.383C339.014 287.705 340.728 290.464 339.551 292.81ZM204.653 327.695L232.626 383.425C233.225 384.62 234.452 385.373 235.794 385.373H290.903C293.534 385.373 295.248 382.614 294.071 380.269L266.098 324.539C265.499 323.343 264.273 322.59 262.93 322.59H207.817C205.185 322.59 203.471 325.35 204.648 327.695H204.653ZM201.109 317.481L246.589 226.87C247.188 225.675 248.414 224.922 249.757 224.922H304.866C307.497 224.922 309.211 227.681 308.034 230.026L262.555 320.637C261.955 321.832 260.73 322.586 259.386 322.586H204.277C201.646 322.586 199.932 319.826 201.109 317.481ZM336.004 282.6L308.03 226.87C307.43 225.675 306.204 224.922 304.862 224.922H249.753C247.121 224.922 245.407 227.681 246.584 230.026L274.557 285.756C275.157 286.952 276.383 287.705 277.725 287.705H332.839C335.47 287.705 337.184 284.945 336.007 282.6H336.004ZM295.705 380.269L341.183 289.658C341.784 288.462 343.009 287.709 344.351 287.709H399.46C402.092 287.709 403.807 290.469 402.629 292.814L357.15 383.425C356.55 384.62 355.324 385.373 353.982 385.373H298.873C296.242 385.373 294.527 382.614 295.705 380.269ZM430.603 345.383L402.63 289.653C402.029 288.459 400.803 287.705 399.462 287.705H344.352C341.72 287.705 340.006 290.464 341.183 292.81L369.156 348.541C369.757 349.735 370.983 350.489 372.324 350.489H427.438C430.069 350.489 431.783 347.729 430.606 345.383H430.603ZM190.708 477.937L236.188 387.326C236.787 386.132 238.013 385.378 239.356 385.378H294.465C297.096 385.378 298.81 388.138 297.633 390.484L252.153 481.094C251.554 482.289 250.327 483.043 248.985 483.043H193.876C191.245 483.043 189.531 480.282 190.708 477.937ZM325.601 443.056L297.628 387.326C297.029 386.132 295.803 385.378 294.46 385.378H239.351C236.72 385.378 235.006 388.138 236.183 390.484L264.156 446.214C264.755 447.408 265.982 448.162 267.324 448.162H322.438C325.069 448.162 326.783 445.401 325.606 443.056H325.601ZM255.588 69.5647L210.109 160.176C209.51 161.37 208.283 162.124 206.941 162.124H151.831C149.2 162.124 147.487 159.364 148.663 157.018L194.142 66.4078C194.742 65.2129 195.968 64.4594 197.311 64.4594H252.419C255.051 64.4594 256.765 67.2193 255.588 69.5647ZM120.694 104.45L148.667 160.18C149.266 161.375 150.493 162.129 151.835 162.129H206.944C209.575 162.129 211.289 159.368 210.112 157.023L182.139 101.293C181.54 100.098 180.314 99.3447 178.971 99.3447H123.858C121.226 99.3447 119.513 102.105 120.689 104.45H120.694ZM306.074 219.811L351.553 129.201C352.152 128.006 353.378 127.252 354.721 127.252H409.83C412.462 127.252 414.175 130.013 412.999 132.358L367.519 222.969C366.92 224.163 365.694 224.917 364.351 224.917H309.242C306.611 224.917 304.897 222.157 306.074 219.811ZM440.967 184.93L412.994 129.201C412.395 128.006 411.169 127.252 409.826 127.252H354.717C352.085 127.252 350.372 130.011 351.548 132.357L379.522 188.088C380.121 189.283 381.348 190.036 382.69 190.036H437.804C440.435 190.036 442.149 187.276 440.972 184.93H440.967ZM234.416 390.484L188.938 481.094C188.338 482.289 187.112 483.043 185.769 483.043H130.66C128.029 483.043 126.315 480.282 127.492 477.937L172.971 387.326C173.57 386.132 174.797 385.378 176.139 385.378H231.248C233.879 385.378 235.593 388.138 234.416 390.484ZM99.5228 425.365L127.495 481.094C128.096 482.289 129.321 483.043 130.664 483.043H185.774C188.405 483.043 190.118 480.282 188.942 477.937L160.968 422.207C160.369 421.013 159.142 420.259 157.8 420.259H102.687C100.055 420.259 98.3414 423.019 99.5183 425.365H99.5228ZM140.02 327.691L94.5416 418.301C93.9419 419.496 92.7159 420.251 91.3734 420.251H36.2688C33.6375 420.251 31.9235 417.491 33.1005 415.145L78.5794 324.534C79.1791 323.34 80.4053 322.585 81.7477 322.585H136.857C139.488 322.585 141.202 325.345 140.025 327.691H140.02ZM5.12718 362.576L33.1001 418.306C33.6998 419.501 34.9258 420.254 36.2684 420.254H91.3775C94.0087 420.254 95.7226 417.494 94.5458 415.149L66.5728 359.419C65.9732 358.224 64.747 357.471 63.4045 357.471H8.29097C5.6597 357.471 3.9458 360.231 5.12271 362.576H5.12718Z" stroke="url(#paint0_radial_0_328)" stroke-opacity="0.2" stroke-width="1.79392" stroke-miterlimit="10"/>
</g>
<defs>
<radialGradient id="paint0_radial_0_328" cx="0" cy="0" r="1" gradientUnits="userSpaceOnUse" gradientTransform="translate(222.378 272.969) rotate(89.8602) scale(272.862 222.488)">
<stop stop-color="#8257E5"/>
<stop offset="1" stop-color="#8257E5" stop-opacity="0"/>
</radialGradient>
<clipPath id="clip0_0_328">
<rect width="354" height="342.041" fill="white" transform="translate(0 0.47998)"/>
</clipPath>
</defs>
</svg>
